<?xml version="1.0" encoding="UTF-8"?>
<svg xmlns="http://www.w3.org/2000/svg" version="1.1" xmlns:xlink="http://www.w3.org/1999/xlink" viewBox="0 0 595.24 400.57">
  <!-- Generator: Adobe Illustrator 29.0.0, SVG Export Plug-In . SVG Version: 2.1.0 Build 186)  -->
  <defs>
    <style>
      .st0 {
        fill: #ffd44a;
        stroke-miterlimit: 10;
      }

      .st0, .st1, .st2, .st3, .st4, .st5, .st6, .st7, .st8 {
        stroke: #fff;
      }

      .st9 {
        fill: #fff;
      }

      .st1, .st2, .st3, .st4, .st5, .st6, .st7, .st8 {
        stroke-linecap: round;
        stroke-linejoin: round;
      }

      .st1, .st2, .st5 {
        opacity: .8;
      }

      .st1, .st3 {
        fill: #c0bbb7;
      }

      .st10 {
        fill: #80a2ff;
      }

      .st10, .st11, .st12, .st13, .st14 {
        mix-blend-mode: screen;
      }

      .st2, .st4 {
        fill: #877e79;
      }

      .st15 {
        fill: #515b6e;
      }

      .st16 {
        fill: #283242;
      }

      .st17 {
        fill: #5c768c;
      }

      .st18 {
        fill: #c1d3f7;
      }

      .st19 {
        isolation: isolate;
      }

      .st11 {
        fill: #396bf5;
      }

      .st20 {
        fill: #596a8c;
      }

      .st12 {
        fill: #2156e8;
      }

      .st5, .st6 {
        fill: #544c47;
      }

      .st21 {
        fill: #8695b3;
      }

      .st22 {
        display: none;
      }

      .st23 {
        fill: #b1c5ed;
      }

      .st13 {
        fill: url(#_未命名的渐变_7);
      }

      .st24 {
        fill: #607396;
      }

      .st8 {
        fill: #828282;
      }

      .st14 {
        fill: #5aa3c9;
      }

      .st25 {
        fill: #afafaf;
      }
    </style>
    <radialGradient id="_未命名的渐变_7" data-name="未命名的渐变 7" cx="180.31" cy="119.69" fx="180.31" fy="119.69" r="363.17" gradientTransform="translate(304.4 148.64) scale(.5)" gradientUnits="userSpaceOnUse">
      <stop offset="0" stop-color="#ff0"/>
      <stop offset=".1" stop-color="#ffff24" stop-opacity=".86"/>
      <stop offset=".29" stop-color="#ff6" stop-opacity=".6"/>
      <stop offset=".47" stop-color="#ffff9c" stop-opacity=".39"/>
      <stop offset=".63" stop-color="#ffffc7" stop-opacity=".22"/>
      <stop offset=".78" stop-color="#ffffe5" stop-opacity=".1"/>
      <stop offset=".91" stop-color="#fffff8" stop-opacity=".03"/>
      <stop offset="1" stop-color="#fff" stop-opacity="0"/>
    </radialGradient>
  </defs>
  <g class="st19">
    <g id="_图层_3" data-name="图层_3">
      <ellipse class="st13" cx="395.11" cy="207.89" rx="182.68" ry="179.8"/>
    </g>
    <g id="Make2D::可见线::曲线">
      <polygon class="st8" points="-422.36 36.94 -422.36 66.48 -433.68 75.54 -437.57 78.65 -437.57 49.1 -422.36 36.94"/>
      <polygon class="st8" points="-424.28 76.71 -424.28 99.62 -435.68 108.75 -439.49 111.79 -439.49 88.88 -424.28 76.71"/>
      <path class="st8" d="M-391.25,118.89c0,3.72-1.17,6.69-3.51,8.91-.23.22-.47.42-.71.61-2.21,1.77-4.86,2.46-7.97,2.07-3.15-.4-6.87-2.22-11.16-5.47l15.21-12.17c2.97,2.25,5.66,3.82,8.08,4.7.04.44.06.89.06,1.35Z"/>
      <path class="st8" d="M-345.17,116.78c0,9.9-3.57,17.8-10.71,23.71-.14.12-.29.24-.43.36l-15.21,12.17c.14-.12.29-.24.43-.36,7.15-5.91,10.72-13.82,10.72-23.71,0-6.64-1.35-12.54-4.03-17.73-2.68-5.18-6.98-10.18-12.89-14.99l15.21-12.17c5.91,4.81,10.2,9.81,12.89,14.99,2.68,5.19,4.02,11.1,4.02,17.73Z"/>
      <path class="st7" d="M-360.37,128.95c0,9.89-3.57,17.8-10.72,23.71-.14.12-.29.24-.43.36-7.06,5.64-15.71,7.83-25.94,6.55-5.76-.73-11.47-2.55-17.14-5.47v-29.09c4.29,3.25,8.01,5.07,11.16,5.47,3.11.39,5.76-.3,7.97-2.07.24-.19.48-.39.71-.61,2.34-2.22,3.51-5.19,3.51-8.91,0-.46-.02-.91-.06-1.35-.33-3.69-2.06-6.86-5.19-9.52-3.49-2.97-8.17-4.83-14.03-5.56l7.46-19.34-11.16-1.4v-29.69l53.41,6.7-16.47,37.5c5.91,4.81,10.21,9.81,12.89,14.99,2.68,5.19,4.03,11.09,4.03,17.73Z"/>
      <polygon class="st8" points="-345.61 46.56 -360.82 58.73 -414.23 52.03 -399.02 39.86 -345.61 46.56"/>
      <polygon class="st8" points="-345.61 46.56 -362.08 84.06 -377.29 96.23 -360.82 58.73 -345.61 46.56"/>
      <path class="st8" d="M-228.85,111.77c0,15.58-4.93,27.67-14.77,36.28-.48.42-.97.83-1.46,1.22l-15.21,12.17c.49-.4.98-.8,1.46-1.22,9.85-8.61,14.77-20.71,14.77-36.28s-5.76-29.89-17.29-40.83c-9.7-9.16-23.12-14.81-40.26-16.96l-39.07-4.9,15.2-12.16,39.08,4.9c17.14,2.15,30.56,7.8,40.26,16.95,11.53,10.94,17.29,24.55,17.29,40.83Z"/>
      <path class="st8" d="M-295.48,96.69v33.62l-10.34,8.27v25.4l-4.87,3.9v-73.32l10.12,1.26c1.79.23,3.49.51,5.09.87Z"/>
      <path class="st7" d="M-244.06,123.94c0,15.57-4.92,27.67-14.77,36.28-.48.42-.97.82-1.46,1.22-9.63,7.7-21.83,10.63-36.59,8.78-1.82-.23-4.8-.7-8.94-1.42v-30.22l4.8.6c9.1,1.14,15.83-.04,20.19-3.53,2.54-2.03,4.27-4.83,5.21-8.42.55-2.11.83-4.49.83-7.15,0-12.55-6.89-20.35-20.69-23.39-1.6-.36-3.3-.64-5.09-.87l-10.12-1.26v73.32l-29.99-3.76V61.25l39.07,4.9c17.14,2.15,30.56,7.8,40.26,16.96,11.53,10.94,17.29,24.55,17.29,40.83Z"/>
      <path class="st8" d="M-275.62,127.23c-.94,3.59-2.67,6.39-5.21,8.42-4.36,3.49-11.09,4.67-20.19,3.53l-4.8-.6,10.34-8.27,4.87-3.9,4.8.6c3.82.48,7.21.55,10.19.22Z"/>
      <path class="st8" d="M-495.34,100.81v6.43l-8.26,6.61-14.79-1.86c-4.44-.55-7.4-1.71-8.91-3.49-1.5-1.77-2.25-5.04-2.25-9.81v-61.12l15.21-12.17v61.12c0,4.78.75,8.05,2.25,9.82s4.47,2.93,8.9,3.49l7.85.98Z"/>
      <path class="st8" d="M-490.24,133l-13.36,10.69v-29.84l8.26-6.61v5.99c0,7.77,1.7,14.36,5.1,19.77Z"/>
      <path class="st7" d="M-503.6,113.85v29.84l-21.22-2.66c-10.93-1.37-19.45-5.69-25.56-12.96-6.11-7.27-9.16-16.69-9.16-28.24V33.81l29.99,3.76v61.12c0,4.77.75,8.04,2.25,9.81,1.51,1.78,4.47,2.94,8.91,3.49l14.79,1.86Z"/>
      <polygon class="st8" points="-514.34 25.4 -529.55 37.57 -559.54 33.81 -544.33 21.64 -514.34 25.4"/>
      <path class="st7" d="M-463.11,77.19c-.9.71-1.35,1.78-1.35,3.21,0,2.01.61,3.48,1.85,4.41,1.23.94,3.42,1.6,6.57,1.99l16.55,2.08v22.91l-19.58-2.45c-2.66-.34-4.54-.17-5.65.49-.12.07-.22.15-.33.23-.89.71-1.33,1.92-1.33,3.63,0,2.16.56,3.65,1.7,4.47,1.13.82,3.44,1.45,6.94,1.89l20.17,2.53v29.39l-23.57-2.95c-11.08-1.39-19.55-5.15-25.41-11.29-1.4-1.46-2.62-3.04-3.69-4.73-3.4-5.41-5.1-12-5.1-19.77v-40.32c0-9.85,2.77-17.14,8.31-21.87.17-.15.35-.29.53-.43,5.5-4.41,13.12-6,22.85-4.78l26.08,3.27v29.55l-19.13-2.4c-3.02-.38-5.16-.07-6.41.94Z"/>
      <path class="st8" d="M-422.36,110.42l-15.21,12.16-20.17-2.53c-3.5-.44-5.81-1.07-6.94-1.89-1.14-.82-1.7-2.31-1.7-4.47,0-1.71.44-2.92,1.33-3.63.11-.08.21-.16.33-.23,1.11-.66,2.99-.83,5.65-.49l19.58,2.45,3.81-3.04,13.32,1.67Z"/>
      <polygon class="st8" points="-422.36 110.42 -422.36 139.81 -437.57 151.97 -437.57 122.58 -422.36 110.42"/>
      <path class="st8" d="M-422.36,36.94l-15.21,12.16-26.08-3.27c-9.73-1.22-17.35.37-22.85,4.78l15.2-12.17c5.51-4.4,13.13-5.99,22.86-4.77l26.08,3.27Z"/>
      <path class="st8" d="M-424.28,76.71l-15.21,12.17-16.55-2.08c-3.15-.39-5.34-1.05-6.57-1.99-1.24-.93-1.85-2.4-1.85-4.41,0-1.43.45-2.5,1.35-3.21,1.25-1.01,3.39-1.32,6.41-.94l19.13,2.4,3.89-3.11,9.4,1.17Z"/>
      <polygon class="st3" points="-433.15 246.66 -433.15 276.2 -444.47 285.26 -448.36 288.37 -448.36 258.82 -433.15 246.66"/>
      <polygon class="st3" points="-435.07 286.43 -435.07 309.34 -446.47 318.47 -450.28 321.51 -450.28 298.6 -435.07 286.43"/>
      <path class="st4" d="M-406.46,328.17c0,3.72-1.17,6.69-3.51,8.91-.23.22-.47.42-.71.61-2.21,1.77-4.86,2.46-7.97,2.07-3.15-.4-6.87-2.22-11.16-5.47l15.21-12.17c2.97,2.25,5.66,3.82,8.08,4.7.04.44.06.89.06,1.35Z"/>
      <path class="st3" d="M-360.38,326.06c0,9.9-3.57,17.8-10.71,23.71-.14.12-.29.24-.43.36l-15.21,12.17c.14-.12.29-.24.43-.36,7.15-5.91,10.72-13.82,10.72-23.71,0-6.64-1.35-12.54-4.03-17.73-2.68-5.18-6.98-10.18-12.89-14.99l15.21-12.17c5.91,4.81,10.2,9.81,12.89,14.99,2.68,5.19,4.02,11.1,4.02,17.73Z"/>
      <path class="st6" d="M-375.58,338.23c0,9.89-3.57,17.8-10.72,23.71-.14.12-.29.24-.43.36-7.06,5.64-15.71,7.83-25.94,6.55-5.76-.73-11.47-2.55-17.14-5.47v-29.09c4.29,3.25,8.01,5.07,11.16,5.47,3.11.39,5.76-.3,7.97-2.07.24-.19.48-.39.71-.61,2.34-2.22,3.51-5.19,3.51-8.91,0-.46-.02-.91-.06-1.35-.33-3.69-2.06-6.86-5.19-9.52-3.49-2.97-8.17-4.83-14.03-5.56l7.46-19.34-11.16-1.4v-29.69l53.41,6.7-16.47,37.5c5.91,4.81,10.21,9.81,12.89,14.99,2.68,5.19,4.03,11.09,4.03,17.73Z"/>
      <polygon class="st3" points="-360.82 255.84 -376.03 268.01 -429.44 261.31 -414.23 249.14 -360.82 255.84"/>
      <polygon class="st3" points="-360.82 255.84 -377.29 293.34 -392.5 305.51 -376.03 268.01 -360.82 255.84"/>
      <path class="st3" d="M-251.67,320.32c0,15.58-4.93,27.67-14.77,36.28-.48.42-.97.83-1.46,1.22l-15.21,12.17c.49-.4.98-.8,1.46-1.22,9.85-8.61,14.77-20.71,14.77-36.28s-5.76-29.89-17.29-40.83c-9.7-9.16-23.12-14.81-40.26-16.96l-39.07-4.9,15.2-12.16,39.08,4.9c17.14,2.15,30.56,7.8,40.26,16.95,11.53,10.94,17.29,24.55,17.29,40.83Z"/>
      <path class="st4" d="M-318.3,305.24v33.62l-10.34,8.27v25.4l-4.87,3.9v-73.32l10.12,1.26c1.79.23,3.49.51,5.09.87Z"/>
      <path class="st6" d="M-266.88,332.49c0,15.57-4.92,27.67-14.77,36.28-.48.42-.97.82-1.46,1.22-9.63,7.7-21.83,10.63-36.59,8.78-1.82-.23-4.8-.7-8.94-1.42v-30.22l4.8.6c9.1,1.14,15.83-.04,20.19-3.53,2.54-2.03,4.27-4.83,5.21-8.42.55-2.11.83-4.49.83-7.15,0-12.55-6.89-20.35-20.69-23.39-1.6-.36-3.3-.64-5.09-.87l-10.12-1.26v73.32l-29.99-3.76v-102.87l39.07,4.9c17.14,2.15,30.56,7.8,40.26,16.96,11.53,10.94,17.29,24.55,17.29,40.83Z"/>
      <path class="st4" d="M-298.44,335.78c-.94,3.59-2.67,6.39-5.21,8.42-4.36,3.49-11.09,4.67-20.19,3.53l-4.8-.6,10.34-8.27,4.87-3.9,4.8.6c3.82.48,7.21.55,10.19.22Z"/>
      <path class="st3" d="M-505.06,310.88l3.61.28-16.65,11.96-14.79-1.86c-4.44-.55-7.4-1.71-8.91-3.49-1.5-1.77-2.25-5.04-2.25-9.81v-61.12l15.21-12.17v61.12c0,4.78.75,8.05,2.25,9.82s4.47,2.93,8.9,3.49l12.63,1.79Z"/>
      <path class="st3" d="M-501,340.59l-17.1,12.36v-29.84l17.1-12.28v29.76Z"/>
      <path class="st6" d="M-518.1,323.11v29.84l-21.22-2.66c-10.93-1.37-19.45-5.69-25.56-12.96-6.11-7.27-9.16-16.69-9.16-28.24v-66.02l29.99,3.76v61.12c0,4.77.75,8.04,2.25,9.81,1.51,1.78,4.47,2.94,8.91,3.49l14.79,1.86Z"/>
      <polygon class="st3" points="-528.84 234.66 -544.05 246.83 -574.04 243.07 -558.83 230.9 -528.84 234.66"/>
      <path class="st6" d="M-473.9,286.91c-.9.71-1.35,1.78-1.35,3.21,0,2.01.61,3.48,1.85,4.41,1.23.94,3.42,1.6,6.57,1.99l16.55,2.08v22.91l-19.58-2.45c-2.66-.34-4.54-.17-5.65.49-.12.07-.22.15-.33.23-.89.71-1.33,1.92-1.33,3.63,0,2.16.56,3.65,1.7,4.47,1.13.82,3.44,1.45,6.94,1.89l20.17,2.53v29.39l-23.57-2.95c-11.08-1.39-19.55-5.15-25.41-11.29-1.4-1.46-2.62-3.04-3.69-4.73-3.4-5.41-5.1-12-5.1-19.77v-40.32c0-9.85,2.77-17.14,8.31-21.87.17-.15.35-.29.53-.43,5.5-4.41,13.12-6,22.85-4.78l26.08,3.27v29.55l-19.13-2.4c-3.02-.38-5.16-.07-6.41.94Z"/>
      <path class="st4" d="M-433.15,320.14l-15.21,12.16-20.17-2.53c-3.5-.44-5.81-1.07-6.94-1.89-1.14-.82-1.7-2.31-1.7-4.47,0-1.71.44-2.92,1.33-3.63.11-.08.21-.16.33-.23,1.11-.66,2.99-.83,5.65-.49l19.58,2.45,3.81-3.04,13.32,1.67Z"/>
      <polygon class="st3" points="-433.15 320.14 -433.15 349.53 -448.36 361.69 -448.36 332.3 -433.15 320.14"/>
      <path class="st3" d="M-433.15,246.66l-15.21,12.16-26.08-3.27c-9.73-1.22-17.35.37-22.85,4.78l15.2-12.17c5.51-4.4,13.13-5.99,22.86-4.77l26.08,3.27Z"/>
      <path class="st4" d="M-435.07,286.43l-15.21,12.17-16.55-2.08c-3.15-.39-5.34-1.05-6.57-1.99-1.24-.93-1.85-2.4-1.85-4.41,0-1.43.45-2.5,1.35-3.21,1.25-1.01,3.39-1.32,6.41-.94l19.13,2.4,3.89-3.11,9.4,1.17Z"/>
      <g>
        <g>
          <path class="st16" d="M-320.38,394.97c0,2.09-2.93,3.78-6.55,3.78s-6.55-1.69-6.55-3.78,2.93-3.78,6.55-3.78,6.55,1.69,6.55,3.78Z"/>
          <g>
            <path class="st21" d="M-341.81,369.58v12.35c0,3.57,1.81,8.66,6.23,11.71,1.85,1.51,4.96,2.5,8.48,2.5s6.78-1.04,8.61-2.61c4.31-3.06,6.08-8.07,6.08-11.61v-12.35h-29.4Z"/>
            <ellipse class="st18" cx="-327.1" cy="369.74" rx="14.69" ry="8.2"/>
          </g>
          <path class="st15" d="M-327.09,393.29c-5.81,0-10.8-1.95-12.98-4.75,1.01,1.9,2.48,3.71,4.49,5.1,1.85,1.51,4.96,2.5,8.48,2.5s6.78-1.04,8.61-2.61c1.89-1.34,3.29-3.06,4.27-4.86-2.23,2.72-7.15,4.62-12.87,4.62Z"/>
          <g>
            <path class="st20" d="M-327.1,377.94c-7.75,0-14.1-3.35-14.65-7.59-.03.2-.04.4-.04.6,0,4.53,6.58,8.2,14.69,8.2s14.69-3.67,14.69-8.2c0-.2-.01-.4-.04-.6-.55,4.25-6.9,7.59-14.65,7.59Z"/>
            <path class="st20" d="M-327.07,382.14c-7.74,0-14.09-3.35-14.64-7.59-.03.2-.04.4-.04.6,0,4.53,6.57,8.19,14.68,8.19s14.68-3.67,14.68-8.19c0-.2-.01-.4-.04-.6-.55,4.24-6.9,7.59-14.64,7.59Z"/>
            <path class="st20" d="M-327.05,386.33c-7.74,0-14.08-3.34-14.63-7.59-.03.2-.04.4-.04.6,0,4.52,6.57,8.19,14.67,8.19s14.67-3.67,14.67-8.19c0-.2-.01-.4-.04-.6-.55,4.24-6.89,7.59-14.63,7.59Z"/>
            <path class="st20" d="M-327.02,390.53c-7.74,0-14.07-3.34-14.63-7.58-.03.2-.04.4-.04.6,0,4.52,6.57,8.18,14.67,8.18s14.67-3.66,14.67-8.18c0-.2-.01-.4-.04-.6-.55,4.24-6.89,7.58-14.63,7.58Z"/>
          </g>
          <g>
            <path class="st23" d="M-327.07,379.79c-7.74,0-14.09-3.35-14.64-7.59-.03.2-.04.4-.04.6,0,4.53,6.57,8.19,14.68,8.19s14.68-3.67,14.68-8.19c0-.2-.01-.4-.04-.6-.55,4.24-6.9,7.59-14.64,7.59Z"/>
            <path class="st23" d="M-327.05,383.99c-7.74,0-14.08-3.34-14.63-7.59-.03.2-.04.4-.04.6,0,4.52,6.57,8.19,14.67,8.19s14.67-3.67,14.67-8.19c0-.2-.01-.4-.04-.6-.55,4.24-6.89,7.59-14.63,7.59Z"/>
            <path class="st23" d="M-327.02,388.18c-7.74,0-14.07-3.34-14.63-7.58-.03.2-.04.4-.04.6,0,4.52,6.57,8.18,14.67,8.18s14.67-3.66,14.67-8.18c0-.2-.01-.4-.04-.6-.55,4.24-6.89,7.58-14.63,7.58Z"/>
          </g>
        </g>
        <path class="st10" d="M-298.06,326.99c-.89-10.03-8.03-17.02-13.46-19.17-2.11-.84-4.95-1.78-8.7-2.54-1.9-.39-3.33-.47-5.28-.78l-3.21-.37c-1.99-.29-2.7-.22-4.5-.02-2.58.29-6.06,1.61-9.93,3.58-7.64,3.9-13.75,12.33-14.35,19.38-.5,5.85.65,13.34,5.29,19.85,6.35,8.91,8.55,11.63,8.89,15.09.23,2.38.52,7.55,3.74,11.17.51.67,1.23,1.28,2.11,1.82,1.17.77,2.59,1.37,4.3,1.72h0c1.71.43,3.64.67,5.67.67s3.92-.23,5.63-.65h0c1.36-.3,2.53-.75,3.55-1.29.06-.03.12-.06.18-.1.05-.03.11-.06.16-.08.97-.53,1.77-1.15,2.35-1.82,3.58-3.64,3.77-8.97,4.01-11.43.33-3.46,1.98-6.26,8.33-15.17,4.65-6.51,5.72-14,5.21-19.85Z"/>
        <ellipse class="st24" cx="-327.1" cy="369.74" rx="12.38" ry="6.91"/>
        <path class="st11" d="M-320.31,357.99c-.07-1.1-.6-2.15-.84-3.11-.25-.96.53-1.93.49-3.93-.01-.75-.31-1.14-.67-1.33-.03-.02-.06-.04-.09-.05-.03-.02-.06-.04-.09-.05-.03-.02-.06-.04-.09-.05-.03-.02-.06-.04-.09-.05-.03-.02-.06-.04-.09-.05-.03-.02-.06-.04-.09-.05-.03-.02-.06-.04-.09-.05-.03-.02-.06-.04-.09-.05-.03-.02-.06-.04-.09-.05-.03-.02-.06-.04-.09-.05-.03-.02-.06-.04-.09-.05-.03-.02-.06-.04-.09-.05-.03-.02-.06-.04-.09-.05-.03-.02-.06-.04-.09-.05-.03-.02-.06-.04-.09-.05-.03-.02-.06-.04-.09-.05-.03-.02-.06-.04-.09-.05-.03-.02-.06-.04-.09-.05-.03-.02-.06-.04-.09-.05-.03-.02-.06-.04-.09-.05-.03-.02-.06-.04-.09-.05-.03-.02-.06-.04-.09-.05-.03-.02-.06-.04-.09-.05-.03-.02-.06-.04-.09-.05-.03-.02-.06-.04-.09-.05-.03-.02-.06-.04-.09-.05-.03-.02-.06-.04-.09-.05-.03-.02-.06-.04-.09-.05-.03-.02-.06-.04-.09-.05-.03-.02-.06-.04-.09-.05-.03-.02-.06-.04-.09-.05-.03-.02-.06-.04-.09-.05-.03-.02-.06-.04-.09-.05-.03-.02-.06-.04-.09-.05-.03-.02-.06-.04-.09-.05-.03-.02-.06-.04-.09-.05-.03-.02-.06-.04-.09-.05-.03-.02-.06-.04-.09-.05-.03-.02-.06-.04-.09-.05-.03-.02-.06-.04-.09-.05-.03-.02-.06-.04-.09-.05-.03-.02-.06-.04-.09-.05-.03-.02-.06-.04-.09-.05-.03-.02-.06-.04-.09-.05-.03-.02-.06-.04-.09-.05-.03-.02-.06-.04-.09-.05-.03-.02-.06-.04-.09-.05-.03-.02-.06-.04-.09-.05-.03-.02-.06-.04-.09-.05-.03-.02-.06-.04-.09-.05-.35-.23-.78-.25-1.09-.22-.22.02-.47.1-.72.24l-2.84,1.59c-.25.14-.49.33-.72.56-.59.61-1.64,1.9-1.67,3.37-.04,2.04.74,2.14.49,3.38-.25,1.24-.77,2.88-.84,4.05-.05.77-.03,6.06-.02,9.58,0,.74.44,1.34,1.04,1.64.03.02.06.03.09.04.03.02.06.03.09.04.03.02.06.03.09.04.03.02.06.03.09.04.03.02.06.03.09.04.03.02.06.03.09.04.03.02.06.03.09.04.03.02.06.03.09.04.03.02.06.03.09.04.03.02.06.03.09.04.03.02.06.03.09.04.03.02.06.03.09.04.03.02.06.03.09.04.03.02.06.03.09.04.03.02.06.03.09.04.03.02.06.03.09.04.03.02.06.03.09.04.03.02.06.03.09.04.03.02.06.03.09.04.03.02.06.03.09.04.03.02.06.03.09.04.03.02.06.03.09.04.03.02.06.03.09.04.03.02.06.03.09.04.03.02.06.03.09.04.03.02.06.03.09.04.03.02.06.03.09.04.03.02.06.03.09.04.03.02.06.03.09.04.03.02.06.03.09.04.03.02.06.03.09.04.03.02.06.03.09.04.03.02.06.03.09.04.03.02.06.03.09.04.03.02.06.03.09.04.03.02.06.03.09.04.03.02.06.03.09.04.03.02.06.03.09.04.03.02.06.03.09.04.03.02.06.03.09.04.03.02.06.03.09.04.03.02.06.03.09.04.03.02.06.03.09.04.03.02.06.03.09.04.03.02.06.03.09.04.03.02.06.03.09.04.03.02.06.03.09.04.03.02.06.03.09.04.03.02.06.03.09.04.03.02.06.03.09.04.68.38,1.56.44,2.34,0l3.36-1.87c.91-.51,1.48-1.45,1.48-2.47.02-3.26.04-10.29,0-11.13Z"/>
        <path class="st12" d="M-320.31,357.99c-.07-1.1-.6-2.15-.84-3.11-.25-.96.53-1.93.49-3.93-.03-1.44-1.08-1.55-1.67-1.5-.22.02-.47.1-.72.24l-2.84,1.59c-.25.14-.49.33-.72.56-.59.61-1.64,1.9-1.67,3.37-.04,2.04.74,2.14.49,3.38-.25,1.24-.77,2.88-.84,4.05-.04.72-.03,5.4-.02,8.88,0,1.73,1.95,2.81,3.5,1.94l3.36-1.87c.91-.51,1.48-1.45,1.48-2.47.02-3.26.04-10.29,0-11.13Z"/>
        <path class="st17" d="M-324.37,370.19h-.25v-18.96c0-1.41.15-2.9.43-4.43l4.14-26.69.25.04-4.14,26.69c-.29,1.52-.43,2.99-.43,4.39v18.96Z"/>
        <path class="st17" d="M-328.43,372.32v-18.96c0-1.39-.14-2.7-.43-3.9l-7.96-19.81.23-.09,7.97,19.83c.29,1.23.44,2.56.44,3.97v18.96s-.25,0-.25,0Z"/>
        <path class="st9" d="M-332.76,330.8c-2.05,0-4.01-.46-4.12-.49-.4-.1-.64-.49-.55-.87.1-.39.5-.62.9-.53.03,0,3.35.79,5.55.27,2.11-.49,3.21-1.95,3.22-1.97l.25-.33.42.03c.78.06,3.07.04,4.25-.75,1.41-.95,1.78-1.99,1.79-2.04l.09-.28.27-.14s.72-.39.88-1.11c.13-.57-.11-1.25-.71-2.02-.25-.32-.18-.77.14-1.01.33-.24.8-.18,1.05.14.88,1.13,1.21,2.21.98,3.22-.23,1.02-.98,1.64-1.38,1.91-.23.49-.85,1.57-2.25,2.52-1.5,1.01-3.88,1.06-4.82,1.03-.52.57-1.8,1.74-3.82,2.21-.67.16-1.41.21-2.13.21Z"/>
        <path class="st14" d="M-328.95,310.25c1.24,3.05-2.33,7.25-7.96,9.39-5.64,2.14-11.21,1.4-12.45-1.65-1.24-3.05,2.33-7.25,7.96-9.39,5.64-2.14,11.21-1.4,12.45,1.65Z"/>
      </g>
      <g>
        <rect class="st0" x="-355.83" y="379.95" width="5.7" height="15.39" rx="-172.21" ry="-172.21" transform="translate(-828.82 607.73) rotate(-157.14)"/>
        <rect class="st0" x="-309.63" y="380.23" width="5.7" height="15.39" rx="-149.11" ry="-149.11" transform="translate(-444.73 862.88) rotate(157.86)"/>
        <rect class="st0" x="-276.76" y="347.77" width="5.7" height="15.39" rx="-132.68" ry="-132.68" transform="translate(-52.75 745.94) rotate(112.86)"/>
        <rect class="st0" x="-276.48" y="301.57" width="5.7" height="15.39" rx="-132.53" ry="-132.53" transform="translate(115.97 446.14) rotate(67.86)"/>
        <rect class="st0" x="-308.94" y="268.7" width="5.7" height="15.39" rx="-148.77" ry="-148.77" transform="translate(83.33 140.59) rotate(22.86)"/>
        <rect class="st0" x="-355.14" y="268.42" width="5.7" height="15.39" rx="-171.86" ry="-171.86" transform="translate(-130.06 -112.42) rotate(-22.14)"/>
        <rect class="st0" x="-388.01" y="300.88" width="5.7" height="15.39" rx="-188.3" ry="-188.3" transform="translate(-519.9 -166.2) rotate(-67.14)"/>
        <rect class="st0" x="-388.29" y="347.08" width="5.7" height="15.39" rx="-188.44" ry="-188.44" transform="translate(-859.33 131.48) rotate(-112.14)"/>
      </g>
      <polygon class="st3" points="281.71 127.8 281.71 157.34 270.39 166.4 266.5 169.51 266.5 139.96 281.71 127.8"/>
      <polygon class="st3" points="279.79 167.57 279.79 190.48 268.39 199.61 264.58 202.65 264.58 179.74 279.79 167.57"/>
      <path class="st4" d="M308.4,209.31c0,3.72-1.17,6.69-3.51,8.91-.23.22-.47.42-.71.61-2.21,1.77-4.86,2.46-7.97,2.07-3.15-.4-6.87-2.22-11.16-5.47l15.21-12.17c2.97,2.25,5.66,3.82,8.08,4.7.04.44.06.89.06,1.35Z"/>
      <path class="st1" d="M354.48,207.2c0,9.9-3.57,17.8-10.71,23.71-.14.12-.29.24-.43.36l-15.21,12.17c.14-.12.29-.24.43-.36,7.15-5.91,10.72-13.82,10.72-23.71,0-6.64-1.35-12.54-4.03-17.73-2.68-5.18-6.98-10.18-12.89-14.99l15.21-12.17c5.91,4.81,10.2,9.81,12.89,14.99,2.68,5.19,4.02,11.1,4.02,17.73Z"/>
      <path class="st5" d="M339.28,219.37c0,9.89-3.57,17.8-10.72,23.71-.14.12-.29.24-.43.36-7.06,5.64-15.71,7.83-25.94,6.55-5.76-.73-11.47-2.55-17.14-5.47v-29.09c4.29,3.25,8.01,5.07,11.16,5.47,3.11.39,5.76-.3,7.97-2.07.24-.19.48-.39.71-.61,2.34-2.22,3.51-5.19,3.51-8.91,0-.46-.02-.91-.06-1.35-.33-3.69-2.06-6.86-5.19-9.52-3.49-2.97-8.17-4.83-14.03-5.56l7.46-19.34-11.16-1.4v-29.69l53.41,6.7-16.47,37.5c5.91,4.81,10.21,9.81,12.89,14.99,2.68,5.19,4.03,11.09,4.03,17.73Z"/>
      <polygon class="st1" points="354.04 136.98 338.83 149.15 285.42 142.45 300.63 130.28 354.04 136.98"/>
      <polygon class="st1" points="354.04 136.98 337.57 174.48 322.36 186.65 338.83 149.15 354.04 136.98"/>
      <path class="st1" d="M463.2,201.46c0,15.58-4.93,27.67-14.77,36.28-.48.42-.97.83-1.46,1.22l-15.21,12.17c.49-.4.98-.8,1.46-1.22,9.85-8.61,14.77-20.71,14.77-36.28s-5.76-29.89-17.29-40.83c-9.7-9.16-23.12-14.81-40.26-16.96l-39.07-4.9,15.2-12.16,39.08,4.9c17.14,2.15,30.56,7.8,40.26,16.95,11.53,10.94,17.29,24.55,17.29,40.83Z"/>
      <path class="st2" d="M388.77,223.57c14.2,10.15,23.81,5.73,23.81,5.73,0,0-4.28,3.52-9.57,4.85-3.86.97-5.63,1.56-12.9,1.13-6.6-.39-10.96-2.67-12.06-3.28-6.87-3.81-9.82-9.42-11.34-13.5-1.75-4.69-2.33-11.37-1.05-17.27.75-3.45,3.48-9.38,10.1-14.01,4.23-2.96,8.41-4.05,8.41-4.05,0,0-4.4,10.73-4.58,20.07-.14,6.86,2.78,15.74,9.19,20.32Z"/>
      <path class="st5" d="M430.7,170.79c-9.7-9.16-23.12-14.81-40.26-16.96l-39.07-4.9v102.87l45.16,5.07c4.36.41,4.46.45,6.29.54,15.34.77,19.31-.59,28.94-8.29.49-.4.98-.8,1.46-1.22,9.85-8.61,14.77-20.71,14.77-36.28s-5.76-29.89-17.29-40.83ZM422.16,215.11c-.94,3.59-2.8,7.37-5.13,10.29-4.36,3.49-5.91,6.44-13.59,8.63,0,0-4.22,1.27-6.75,1.35-6.71.2-17.67.16-25.36-8.79-3.05-3.55-4.38-6.96-5.13-9.68-1.02-3.7-1.8-10-.72-14.92,1.61-7.35,6.36-11.73,9.17-13.93,4.54-3.56,9.19-4.91,12.44-5.62,1.34-.3,6.28-.55,6.28-.55,4.74.15,5.39.4,10.29,1.7,9.37,2.49,19,9.98,19.33,24.37.06,2.66-.28,5.04-.83,7.15Z"/>
      <path class="st3" d="M209.8,192.02l3.61.28-16.65,11.96-14.79-1.86c-4.44-.55-7.4-1.71-8.91-3.49-1.5-1.77-2.25-5.04-2.25-9.81v-61.12l15.21-12.17v61.12c0,4.78.75,8.05,2.25,9.82s4.47,2.93,8.9,3.49l12.63,1.79Z"/>
      <path class="st3" d="M213.86,221.74l-17.1,12.36v-29.84l17.1-12.28v29.76Z"/>
      <path class="st6" d="M196.76,204.26v29.84l-21.22-2.66c-10.93-1.37-19.45-5.69-25.56-12.96-6.11-7.27-9.16-16.69-9.16-28.24v-66.02l29.99,3.76v61.12c0,4.77.75,8.04,2.25,9.81,1.51,1.78,4.47,2.94,8.91,3.49l14.79,1.86Z"/>
      <polygon class="st3" points="186.02 115.81 170.81 127.98 140.82 124.22 156.03 112.05 186.02 115.81"/>
      <path class="st6" d="M240.96,168.05c-.9.71-1.35,1.78-1.35,3.21,0,2.01.61,3.48,1.85,4.41,1.23.94,3.42,1.6,6.57,1.99l16.55,2.08v22.91l-19.58-2.45c-2.66-.34-4.54-.17-5.65.49-.12.07-.22.15-.33.23-.89.71-1.33,1.92-1.33,3.63,0,2.16.56,3.65,1.7,4.47,1.13.82,3.44,1.45,6.94,1.89l20.17,2.53v29.39l-23.57-2.95c-11.08-1.39-19.55-5.15-25.41-11.29-1.4-1.46-2.62-3.04-3.69-4.73-3.4-5.41-5.1-12-5.1-19.77v-40.32c0-9.85,2.77-17.14,8.31-21.87.17-.15.35-.29.53-.43,5.5-4.41,13.12-6,22.85-4.78l26.08,3.27v29.55l-19.13-2.4c-3.02-.38-5.16-.07-6.41.94Z"/>
      <path class="st4" d="M281.71,201.28l-15.21,12.16-20.17-2.53c-3.5-.44-5.81-1.07-6.94-1.89-1.14-.82-1.7-2.31-1.7-4.47,0-1.71.44-2.92,1.33-3.63.11-.08.21-.16.33-.23,1.11-.66,2.99-.83,5.65-.49l19.58,2.45,3.81-3.04,13.32,1.67Z"/>
      <polygon class="st3" points="281.71 201.28 281.71 230.67 266.5 242.83 266.5 213.44 281.71 201.28"/>
      <path class="st3" d="M281.71,127.8l-15.21,12.16-26.08-3.27c-9.73-1.22-17.35.37-22.85,4.78l15.2-12.17c5.51-4.4,13.13-5.99,22.86-4.77l26.08,3.27Z"/>
      <path class="st4" d="M279.79,167.57l-15.21,12.17-16.55-2.08c-3.15-.39-5.34-1.05-6.57-1.99-1.24-.93-1.85-2.4-1.85-4.41,0-1.43.45-2.5,1.35-3.21,1.25-1.01,3.39-1.32,6.41-.94l19.13,2.4,3.89-3.11,9.4,1.17Z"/>
    </g>
    <g id="_图层_2" data-name="图层_2">
      <g>
        <g>
          <path class="st16" d="M400.25,271.21c0,1.89-2.86,3.42-6.38,3.42s-6.38-1.53-6.38-3.42,2.86-3.42,6.38-3.42,6.38,1.53,6.38,3.42Z"/>
          <g>
            <path class="st21" d="M379.36,248.2v11.19c0,3.24,1.77,7.85,6.07,10.61,1.8,1.37,4.83,2.27,8.27,2.27s6.61-.94,8.39-2.36c4.2-2.77,5.93-7.32,5.93-10.52v-11.19h-28.66Z"/>
            <ellipse class="st18" cx="393.7" cy="248.35" rx="14.32" ry="7.43"/>
          </g>
          <path class="st15" d="M393.7,269.68c-5.66,0-10.52-1.77-12.65-4.3.98,1.72,2.41,3.36,4.37,4.62,1.8,1.37,4.83,2.27,8.27,2.27s6.61-.94,8.39-2.36c1.84-1.21,3.2-2.77,4.16-4.4-2.17,2.47-6.97,4.18-12.54,4.18Z"/>
          <g>
            <path class="st20" d="M393.7,255.78c-7.55,0-13.74-3.03-14.28-6.88-.03.18-.04.36-.04.55,0,4.1,6.41,7.43,14.32,7.43s14.32-3.33,14.32-7.43c0-.18-.01-.37-.04-.55-.54,3.85-6.73,6.88-14.28,6.88Z"/>
            <path class="st20" d="M393.73,259.58c-7.55,0-13.73-3.03-14.27-6.88-.03.18-.04.36-.04.55,0,4.1,6.41,7.43,14.31,7.43s14.31-3.32,14.31-7.43c0-.18-.01-.37-.04-.55-.54,3.85-6.72,6.88-14.27,6.88Z"/>
            <path class="st20" d="M393.75,263.38c-7.54,0-13.72-3.03-14.26-6.87-.03.18-.04.36-.04.55,0,4.1,6.4,7.42,14.3,7.42s14.3-3.32,14.3-7.42c0-.18-.01-.37-.04-.55-.54,3.84-6.72,6.87-14.26,6.87Z"/>
            <path class="st20" d="M393.78,267.19c-7.54,0-13.71-3.03-14.25-6.87-.03.18-.04.36-.04.55,0,4.1,6.4,7.42,14.29,7.42s14.29-3.32,14.29-7.42c0-.18-.01-.37-.04-.55-.54,3.84-6.71,6.87-14.25,6.87Z"/>
          </g>
          <g>
            <path class="st23" d="M393.73,257.45c-7.55,0-13.73-3.03-14.27-6.88-.03.18-.04.36-.04.55,0,4.1,6.41,7.43,14.31,7.43s14.31-3.32,14.31-7.43c0-.18-.01-.37-.04-.55-.54,3.85-6.72,6.88-14.27,6.88Z"/>
            <path class="st23" d="M393.75,261.26c-7.54,0-13.72-3.03-14.26-6.87-.03.18-.04.36-.04.55,0,4.1,6.4,7.42,14.3,7.42s14.3-3.32,14.3-7.42c0-.18-.01-.37-.04-.55-.54,3.84-6.72,6.87-14.26,6.87Z"/>
            <path class="st23" d="M393.78,265.06c-7.54,0-13.71-3.03-14.25-6.87-.03.18-.04.36-.04.55,0,4.1,6.4,7.42,14.29,7.42s14.29-3.32,14.29-7.42c0-.18-.01-.37-.04-.55-.54,3.84-6.71,6.87-14.25,6.87Z"/>
          </g>
        </g>
        <path class="st10" d="M422.99,205.18c-.59-6.97-6.54-15.3-13.98-19.15-3.77-1.95-7.19-2.99-9.66-3.54-1.84-.41-3.73-.61-5.63-.61h0c-1.89,0-3.77.2-5.6.61-2.47.55-5.91,1.59-9.68,3.54-7.45,3.86-13.4,12.18-13.98,19.15-.49,5.78.63,13.19,5.16,19.63,6.19,8.8,8.34,11.49,8.66,14.91.22,2.36.5,7.47,3.64,11.04.5.66,1.2,1.26,2.06,1.8,1.14.76,2.52,1.36,4.19,1.7h0c1.67.42,3.55.66,5.53.66s3.82-.23,5.48-.65h0c1.33-.3,2.47-.74,3.46-1.28.06-.03.12-.06.17-.09.05-.03.1-.05.15-.08.94-.53,1.72-1.13,2.29-1.8,3.49-3.6,3.67-8.87,3.9-11.3.32-3.42,2.47-6.11,8.66-14.91,4.53-6.44,5.65-13.84,5.16-19.63Z"/>
        <ellipse class="st24" cx="393.7" cy="248.35" rx="12.06" ry="6.26"/>
        <path class="st11" d="M400.31,237.69c-.07-.99-.58-1.95-.82-2.82-.24-.87.51-1.75.48-3.56-.01-.68-.3-1.03-.65-1.21-.03-.02-.05-.03-.08-.05-.03-.02-.06-.03-.08-.05-.03-.02-.05-.03-.08-.05-.03-.02-.06-.03-.08-.05-.03-.02-.05-.03-.08-.05-.03-.02-.06-.03-.08-.05-.03-.02-.05-.03-.08-.05-.03-.02-.06-.03-.08-.05-.03-.02-.05-.03-.08-.05-.03-.02-.06-.03-.08-.05-.03-.02-.05-.03-.08-.05-.03-.02-.06-.03-.08-.05-.03-.02-.05-.03-.08-.05-.03-.02-.06-.03-.08-.05-.03-.02-.05-.03-.08-.05-.03-.02-.06-.03-.08-.05-.03-.02-.05-.03-.08-.05-.03-.02-.06-.03-.08-.05-.03-.02-.05-.03-.08-.05-.03-.02-.06-.03-.08-.05-.03-.02-.05-.03-.08-.05-.03-.02-.06-.03-.08-.05-.03-.02-.05-.03-.08-.05-.03-.02-.06-.03-.08-.05-.03-.02-.05-.03-.08-.05-.03-.02-.06-.03-.08-.05-.03-.02-.05-.03-.08-.05-.03-.02-.06-.03-.08-.05-.03-.02-.05-.03-.08-.05-.03-.02-.06-.03-.08-.05-.03-.02-.05-.03-.08-.05-.03-.02-.06-.03-.08-.05-.03-.02-.05-.03-.08-.05-.03-.02-.06-.03-.08-.05-.03-.02-.05-.03-.08-.05-.03-.02-.06-.03-.08-.05-.03-.02-.05-.03-.08-.05-.03-.02-.06-.03-.08-.05-.03-.02-.05-.03-.08-.05-.03-.02-.06-.03-.08-.05-.03-.02-.05-.03-.08-.05-.03-.02-.06-.03-.08-.05-.03-.02-.05-.03-.08-.05-.03-.02-.06-.03-.08-.05-.03-.02-.05-.03-.08-.05-.03-.02-.05-.03-.08-.05-.03-.02-.06-.03-.08-.05-.03-.02-.05-.03-.08-.05-.03-.02-.06-.03-.08-.05-.03-.02-.05-.03-.08-.05-.34-.2-.76-.22-1.06-.2-.22.02-.46.09-.7.22l-2.77,1.44c-.24.12-.48.29-.7.5-.58.56-1.6,1.72-1.63,3.05-.03,1.85.72,1.94.48,3.06-.24,1.12-.75,2.61-.82,3.67-.04.7-.03,5.49-.02,8.68,0,.67.43,1.21,1.02,1.48.03.01.06.03.09.04.03.01.06.03.09.04.03.01.06.03.09.04.03.01.06.03.09.04.03.01.06.03.09.04.03.01.06.03.09.04.03.01.06.03.09.04.03.01.06.03.09.04.03.01.06.03.09.04.03.01.06.03.09.04.03.01.06.03.09.04.03.01.06.03.09.04.03.01.06.03.09.04.03.01.06.03.09.04.03.01.06.03.09.04.03.01.06.03.09.04.03.01.06.03.09.04.03.01.06.03.09.04.03.01.06.03.09.04.03.01.06.03.09.04.03.01.06.03.09.04.03.01.06.03.09.04.03.01.06.03.09.04.03.01.06.03.09.04.03.01.06.03.09.04.03.01.06.03.09.04.03.01.06.03.09.04.03.01.06.03.09.04.03.01.06.03.09.04.03.01.06.03.09.04.03.01.06.03.09.04.03.01.06.03.09.04.03.01.06.03.09.04.03.01.06.03.09.04.03.01.06.03.09.04.03.01.06.03.09.04.03.01.06.03.09.04.03.01.06.03.09.04.03.01.06.03.09.04.03.01.06.03.09.04.03.01.06.03.09.04.03.01.06.03.09.04.03.01.06.03.09.04.03.01.06.03.09.04.03.01.06.03.09.04.03.01.06.03.09.04.03.01.06.03.09.04.03.01.06.03.09.04.03.01.06.03.09.04.03.01.06.03.09.04.66.35,1.52.4,2.28,0l3.27-1.7c.89-.46,1.44-1.31,1.44-2.24.02-2.95.04-9.32,0-10.08Z"/>
        <path class="st12" d="M400.31,237.69c-.07-.99-.58-1.95-.82-2.82-.24-.87.51-1.75.48-3.56-.02-1.3-1.05-1.41-1.63-1.36-.22.02-.46.09-.7.22l-2.77,1.44c-.24.12-.48.29-.7.5-.58.56-1.6,1.72-1.63,3.05-.03,1.85.72,1.94.48,3.06-.24,1.12-.75,2.61-.82,3.67-.04.66-.03,4.89-.02,8.05,0,1.57,1.9,2.55,3.41,1.76l3.27-1.7c.89-.46,1.44-1.31,1.44-2.24.02-2.95.04-9.32,0-10.08Z"/>
        <path class="st17" d="M396.36,248.76h-.24v-17.18c0-1.28.14-2.62.42-4.01l4.04-24.19.24.03-4.04,24.19c-.28,1.38-.42,2.71-.42,3.98v17.18Z"/>
        <path class="st17" d="M392.41,250.68v-17.18c0-1.26-.14-2.45-.42-3.53l-7.76-17.95.23-.08,7.76,17.97c.29,1.11.43,2.32.43,3.59v17.18s-.24,0-.24,0Z"/>
        <path class="st25" d="M388.19,213.05c-2,0-3.91-.42-4.02-.44-.39-.09-.63-.44-.53-.79.1-.35.49-.57.88-.48.03,0,3.26.71,5.4.25,2.06-.45,3.13-1.77,3.14-1.78l.24-.3.41.03c.76.05,2.99.04,4.14-.68,1.37-.86,1.73-1.81,1.75-1.85l.09-.25.26-.13s.7-.35.86-1.01c.12-.52-.11-1.14-.7-1.83-.24-.29-.18-.7.14-.92.32-.22.78-.16,1.02.13.86,1.02,1.18,2,.95,2.92-.23.92-.96,1.49-1.35,1.73-.22.45-.83,1.42-2.19,2.28-1.46.92-3.78.96-4.7.93-.51.52-1.76,1.58-3.72,2-.65.14-1.37.19-2.08.19Z"/>
        <path class="st14" d="M394.62,191.65c1.74,3.98-1.3,8.78-6.79,10.72-5.49,1.94-11.36.28-13.1-3.7-1.74-3.98,1.3-8.78,6.79-10.72,5.49-1.94,11.36-.28,13.1,3.7Z"/>
      </g>
      <g class="st22">
        <rect class="st0" x="346.49" y="685.74" width="4.69" height="12.65" rx="2.34" ry="2.34" transform="translate(401.44 1465.28) rotate(-157.14)"/>
        <rect class="st0" x="384.46" y="685.98" width="4.69" height="12.65" rx="2.34" ry="2.34" transform="translate(1006.01 1187.76) rotate(157.86)"/>
        <rect class="st0" x="411.48" y="659.29" width="4.69" height="12.65" rx="2.34" ry="2.34" transform="translate(1187.92 542.83) rotate(112.86)"/>
        <rect class="st0" x="411.72" y="621.32" width="4.69" height="12.65" rx="2.34" ry="2.34" transform="translate(839.34 7.55) rotate(67.86)"/>
        <rect class="st0" x="385.03" y="594.3" width="4.69" height="12.65" rx="2.34" ry="2.34" transform="translate(263.72 -103.31) rotate(22.86)"/>
        <rect class="st0" x="347.06" y="594.07" width="4.69" height="12.65" rx="2.34" ry="2.34" transform="translate(-200.53 175.98) rotate(-22.14)"/>
        <rect class="st0" x="320.04" y="620.75" width="4.69" height="12.65" rx="2.34" ry="2.34" transform="translate(-380.67 680.57) rotate(-67.14)"/>
        <rect class="st0" x="319.8" y="658.72" width="4.69" height="12.65" rx="2.34" ry="2.34" transform="translate(-172.42 1214.11) rotate(-112.14)"/>
      </g>
    </g>
  </g>
</svg>